<?xml version="1.0" standalone="no"?><svg xmlns:xlink="http://www.w3.org/1999/xlink" xmlns="http://www.w3.org/2000/svg" viewBox="0 0 3000 1750.0237981913374" preserveAspectRatio="xMaxYMax slice"><g transform="scale(3.8077106139933363)"><rect x="0" y="0" width="787.8857142857144" height="459.6" fill="#fffdfa"/><rect x="0" y="0" width="65.65714285714286" height="65.65714285714286" fill="#fffdfa"/><rect x="0" y="0" width="32.83" height="32.83" fill="#fbe3bc"/><g transform="translate(0,0) scale(1.6415) rotate(0)"><path d="M10 0L20 10L10 20L0 10L10 0Z" fill="#000000"/></g><rect x="32.83" y="0" width="32.83" height="32.83" fill="#000000"/><rect x="32.83" y="0" width="32.83" height="32.83" fill="#fed262"/><rect x="0" y="32.83" width="32.83" height="32.83" fill="#000000"/><polygon points="0,32.83 32.83,32.83 0,65.66" fill="#fed262"/><rect x="32.83" y="32.83" width="32.83" height="32.83" fill="#f90112"/><path d="M 32.83 32.83 A 32.83 32.83 0 0 0 65.66 65.66 L 65.66 32.83L32.83 32.83" fill="#f90112"/><rect x="65.66" y="0" width="65.66" height="65.66" fill="#000000"/><g transform="translate(65.66,0) scale(3.283) rotate(0)"><path fill-rule="evenodd" clip-rule="evenodd" d="M10 20C15.5228 20 20 15.5228 20 10C20 4.47715 15.5228 0 10 0C4.47715 0 0 4.47715 0 10C0 15.5228 4.47715 20 10 20ZM10 17C13.866 17 17 13.866 17 10C17 6.13401 13.866 3 10 3C6.13401 3 3 6.13401 3 10C3 13.866 6.13401 17 10 17Z" fill="#f90112"/></g><rect x="131.31" y="0" width="65.66" height="65.66" fill="#0d4a8c"/><polygon points="131.31,0 196.97,0 131.31,65.66" fill="#fed262"/><rect x="196.97" y="0" width="65.66" height="65.66" fill="#fed262"/><circle cx="229.8" cy="32.83" r="32.83" fill="#fbe3bc"/><rect x="262.63" y="0" width="65.66" height="65.66" fill="#000000"/><g transform="translate(262.63,0) scale(3.283) rotate(0)"><path fill-rule="evenodd" clip-rule="evenodd" d="M10 20C15.5228 20 20 15.5228 20 10C20 4.47715 15.5228 0 10 0C4.47715 0 0 4.47715 0 10C0 15.5228 4.47715 20 10 20ZM10 17C13.866 17 17 13.866 17 10C17 6.13401 13.866 3 10 3C6.13401 3 3 6.13401 3 10C3 13.866 6.13401 17 10 17Z" fill="#f90112"/></g><rect x="328.29" y="0" width="65.66" height="65.66" fill="#fed262"/><rect x="328.29" y="0" width="65.66" height="65.66" fill="#f90112"/><rect x="393.9428571428572" y="0" width="65.65714285714286" height="65.65714285714286" fill="#fffdfa"/><rect x="393.94" y="0" width="32.83" height="32.83" fill="#fbe3bc"/><g transform="translate(393.94,0) scale(1.6415) rotate(0)"><path fill-rule="evenodd" clip-rule="evenodd" d="M10 20C15.5228 20 20 15.5228 20 10C20 4.47715 15.5228 0 10 0C4.47715 0 0 4.47715 0 10C0 15.5228 4.47715 20 10 20ZM10 17C13.866 17 17 13.866 17 10C17 6.13401 13.866 3 10 3C6.13401 3 3 6.13401 3 10C3 13.866 6.13401 17 10 17Z" fill="#fbe3bc"/></g><rect x="426.77" y="0" width="32.83" height="32.83" fill="#000000"/><g transform="translate(426.77,0) scale(1.6415) rotate(0)"><rect width="20" height="10" fill="#f90112"/></g><rect x="393.94" y="32.83" width="32.83" height="32.83" fill="#f90112"/><g transform="translate(393.94,32.83) scale(1.6415) rotate(0)"><path fill-rule="evenodd" clip-rule="evenodd" d="M10 20C15.5228 20 20 15.5228 20 10C20 4.47715 15.5228 0 10 0C4.47715 0 0 4.47715 0 10C0 15.5228 4.47715 20 10 20ZM10 17C13.866 17 17 13.866 17 10C17 6.13401 13.866 3 10 3C6.13401 3 3 6.13401 3 10C3 13.866 6.13401 17 10 17Z" fill="#f90112"/></g><rect x="426.77" y="32.83" width="32.83" height="32.83" fill="#fbe3bc"/><rect x="426.77" y="32.83" width="32.83" height="32.83" fill="#0d4a8c"/><rect x="459.6" y="0" width="65.66" height="65.66" fill="#0d4a8c"/><g transform="translate(459.6,0) scale(3.283) rotate(0)"><rect width="20" height="10" fill="#fed262"/></g><rect x="525.26" y="0" width="65.66" height="65.66" fill="#fbe3bc"/><path d="M 525.26 0 A 65.66 65.66 0 0 1  590.92 65.66 L 525.26 0 A 65.66 65.66 0 0 0 590.92 65.66" fill="#f90112"/><rect x="590.9142857142857" y="0" width="65.65714285714286" height="65.65714285714286" fill="#fffdfa"/><rect x="590.91" y="0" width="32.83" height="32.83" fill="#f90112"/><circle cx="607.3249999999999" cy="16.415" r="16.415" fill="#000000"/><rect x="623.74" y="0" width="32.83" height="32.83" fill="#fed262"/><rect x="623.74" y="0" width="32.83" height="32.83" fill="#0d4a8c"/><rect x="590.91" y="32.83" width="32.83" height="32.83" fill="#fed262"/><circle cx="607.3249999999999" cy="49.245" r="16.415" fill="#fbe3bc"/><rect x="623.74" y="32.83" width="32.83" height="32.83" fill="#000000"/><g transform="translate(623.74,32.83) scale(1.6415) rotate(0)"><path d="M10 0L20 10L10 20L0 10L10 0Z" fill="#0d4a8c"/></g><rect x="656.5714285714286" y="0" width="65.65714285714286" height="65.65714285714286" fill="#fffdfa"/><rect x="656.57" y="0" width="32.83" height="32.83" fill="#000000"/><rect x="656.57" y="0" width="32.83" height="32.83" fill="#fed262"/><rect x="689.4" y="0" width="32.83" height="32.83" fill="#0d4a8c"/><g transform="translate(689.4,0) scale(1.6415) rotate(0)"><rect width="20" height="10" fill="#0d4a8c"/></g><rect x="656.57" y="32.83" width="32.83" height="32.83" fill="#f90112"/><g transform="translate(656.57,32.83) scale(1.6415) rotate(0)"><path fill-rule="evenodd" clip-rule="evenodd" d="M10 20C15.5228 20 20 15.5228 20 10C20 4.47715 15.5228 0 10 0C4.47715 0 0 4.47715 0 10C0 15.5228 4.47715 20 10 20ZM10 17C13.866 17 17 13.866 17 10C17 6.13401 13.866 3 10 3C6.13401 3 3 6.13401 3 10C3 13.866 6.13401 17 10 17Z" fill="#0d4a8c"/></g><rect x="689.4" y="32.83" width="32.83" height="32.83" fill="#0d4a8c"/><circle cx="705.8149999999999" cy="49.245" r="16.415" fill="#f90112"/><rect x="722.23" y="0" width="65.66" height="65.66" fill="#fed262"/><g transform="translate(722.23,0) scale(3.283) rotate(0)"><path fill-rule="evenodd" clip-rule="evenodd" d="M10 20C15.5228 20 20 15.5228 20 10C20 4.47715 15.5228 0 10 0C4.47715 0 0 4.47715 0 10C0 15.5228 4.47715 20 10 20ZM10 17C13.866 17 17 13.866 17 10C17 6.13401 13.866 3 10 3C6.13401 3 3 6.13401 3 10C3 13.866 6.13401 17 10 17Z" fill="#0d4a8c"/></g><rect x="0" y="65.66" width="65.66" height="65.66" fill="#f90112"/><g transform="translate(0,65.66) scale(3.283) rotate(0)"><path fill-rule="evenodd" clip-rule="evenodd" d="M10 20C15.5228 20 20 15.5228 20 10C20 4.47715 15.5228 0 10 0C4.47715 0 0 4.47715 0 10C0 15.5228 4.47715 20 10 20ZM10 17C13.866 17 17 13.866 17 10C17 6.13401 13.866 3 10 3C6.13401 3 3 6.13401 3 10C3 13.866 6.13401 17 10 17Z" fill="#fed262"/></g><rect x="65.66" y="65.66" width="65.66" height="65.66" fill="#f90112"/><g transform="translate(65.66,65.66) scale(3.283) rotate(0)"><path d="M10 0L20 10L10 20L0 10L10 0Z" fill="#fed262"/></g><rect x="131.31428571428572" y="65.65714285714286" width="65.65714285714286" height="65.65714285714286" fill="#fffdfa"/><rect x="131.31" y="65.66" width="32.83" height="32.83" fill="#fbe3bc"/><polygon points="131.31,65.66 164.14,98.49 131.31,98.49" fill="#000000"/><rect x="164.14" y="65.66" width="32.83" height="32.83" fill="#f90112"/><path d="M 164.14 65.66 A 32.83 32.83 0 0 1 196.96999999999997 98.49 L 164.14 98.49L164.14 65.66" fill="#0d4a8c"/><rect x="131.31" y="98.49" width="32.83" height="32.83" fill="#f90112"/><rect x="131.31" y="98.49" width="32.83" height="32.83" fill="#fed262"/><rect x="164.14" y="98.49" width="32.83" height="32.83" fill="#fbe3bc"/><rect x="164.14" y="98.49" width="32.83" height="32.83" fill="#f90112"/><rect x="196.97" y="65.66" width="65.66" height="65.66" fill="#fbe3bc"/><g transform="translate(196.97,65.66) scale(3.283) rotate(0)"><rect width="20" height="10" fill="#fbe3bc"/></g><rect x="262.62857142857143" y="65.65714285714286" width="65.65714285714286" height="65.65714285714286" fill="#fffdfa"/><rect x="262.63" y="65.66" width="32.83" height="32.83" fill="#fbe3bc"/><circle cx="279.045" cy="82.07499999999999" r="16.415" fill="#f90112"/><rect x="295.46" y="65.66" width="32.83" height="32.83" fill="#fbe3bc"/><path d="M 295.46 98.49 A 32.83 32.83 0 0 1  328.28999999999996 65.66 L 328.28999999999996 98.49L295.46 98.49" fill="#f90112"/><rect x="262.63" y="98.49" width="32.83" height="32.83" fill="#000000"/><g transform="translate(262.63,98.49) scale(1.6415) rotate(0)"><path d="M10 0L20 10L10 20L0 10L10 0Z" fill="#0d4a8c"/></g><rect x="295.46" y="98.49" width="32.83" height="32.83" fill="#fbe3bc"/><g transform="translate(295.46,98.49) scale(1.6415) rotate(0)"><path d="M10 0L20 10L10 20L0 10L10 0Z" fill="#0d4a8c"/></g><rect x="328.29" y="65.66" width="65.66" height="65.66" fill="#f90112"/><g transform="translate(328.29,65.66) scale(3.283) rotate(0)"><rect width="20" height="10" fill="#fed262"/></g><rect x="393.94" y="65.66" width="65.66" height="65.66" fill="#fed262"/><circle cx="426.77" cy="98.49" r="32.83" fill="#fed262"/><rect x="459.6" y="65.66" width="65.66" height="65.66" fill="#fbe3bc"/><rect x="459.6" y="65.66" width="65.66" height="65.66" fill="#0d4a8c"/><rect x="525.2571428571429" y="65.65714285714286" width="65.65714285714286" height="65.65714285714286" fill="#fffdfa"/><rect x="525.26" y="65.66" width="32.83" height="32.83" fill="#0d4a8c"/><circle cx="541.675" cy="82.07499999999999" r="16.415" fill="#000000"/><rect x="558.09" y="65.66" width="32.83" height="32.83" fill="#fed262"/><circle cx="574.505" cy="82.07499999999999" r="16.415" fill="#f90112"/><rect x="525.26" y="98.49" width="32.83" height="32.83" fill="#f90112"/><g transform="translate(525.26,98.49) scale(1.6415) rotate(0)"><rect width="20" height="10" fill="#f90112"/></g><rect x="558.09" y="98.49" width="32.83" height="32.83" fill="#fbe3bc"/><polygon points="558.09,98.49 590.9200000000001,131.32 558.09,131.32" fill="#fbe3bc"/><rect x="590.91" y="65.66" width="65.66" height="65.66" fill="#0d4a8c"/><g transform="translate(590.91,65.66) scale(3.283) rotate(0)"><path fill-rule="evenodd" clip-rule="evenodd" d="M10 20C15.5228 20 20 15.5228 20 10C20 4.47715 15.5228 0 10 0C4.47715 0 0 4.47715 0 10C0 15.5228 4.47715 20 10 20ZM10 17C13.866 17 17 13.866 17 10C17 6.13401 13.866 3 10 3C6.13401 3 3 6.13401 3 10C3 13.866 6.13401 17 10 17Z" fill="#fbe3bc"/></g><rect x="656.5714285714286" y="65.65714285714286" width="65.65714285714286" height="65.65714285714286" fill="#fffdfa"/><rect x="656.57" y="65.66" width="32.83" height="32.83" fill="#f90112"/><g transform="translate(656.57,65.66) scale(1.6415) rotate(0)"><path fill-rule="evenodd" clip-rule="evenodd" d="M10 20C15.5228 20 20 15.5228 20 10C20 4.47715 15.5228 0 10 0C4.47715 0 0 4.47715 0 10C0 15.5228 4.47715 20 10 20ZM10 17C13.866 17 17 13.866 17 10C17 6.13401 13.866 3 10 3C6.13401 3 3 6.13401 3 10C3 13.866 6.13401 17 10 17Z" fill="#fed262"/></g><rect x="689.4" y="65.66" width="32.83" height="32.83" fill="#0d4a8c"/><circle cx="705.8149999999999" cy="82.07499999999999" r="16.415" fill="#0d4a8c"/><rect x="656.57" y="98.49" width="32.83" height="32.83" fill="#f90112"/><g transform="translate(656.57,98.49) scale(1.6415) rotate(0)"><path fill-rule="evenodd" clip-rule="evenodd" d="M10 20C15.5228 20 20 15.5228 20 10C20 4.47715 15.5228 0 10 0C4.47715 0 0 4.47715 0 10C0 15.5228 4.47715 20 10 20ZM10 17C13.866 17 17 13.866 17 10C17 6.13401 13.866 3 10 3C6.13401 3 3 6.13401 3 10C3 13.866 6.13401 17 10 17Z" fill="#fed262"/></g><rect x="689.4" y="98.49" width="32.83" height="32.83" fill="#0d4a8c"/><g transform="translate(689.4,98.49) scale(1.6415) rotate(0)"><rect width="20" height="10" fill="#000000"/></g><rect x="722.23" y="65.66" width="65.66" height="65.66" fill="#f90112"/><circle cx="755.0600000000001" cy="98.49" r="32.83" fill="#fbe3bc"/><rect x="0" y="131.31" width="65.66" height="65.66" fill="#000000"/><g transform="translate(0,131.31) scale(3.283) rotate(0)"><path d="M10 0L20 10L10 20L0 10L10 0Z" fill="#fed262"/></g><rect x="65.66" y="131.31" width="65.66" height="65.66" fill="#f90112"/><rect x="65.66" y="131.31" width="65.66" height="65.66" fill="#0d4a8c"/><rect x="131.31" y="131.31" width="65.66" height="65.66" fill="#fed262"/><circle cx="164.14" cy="164.14" r="32.83" fill="#0d4a8c"/><rect x="196.97" y="131.31" width="65.66" height="65.66" fill="#0d4a8c"/><g transform="translate(196.97,131.31) scale(3.283) rotate(0)"><rect width="20" height="10" fill="#000000"/></g><rect x="262.63" y="131.31" width="65.66" height="65.66" fill="#f90112"/><circle cx="295.46" cy="164.14" r="32.83" fill="#f90112"/><rect x="328.29" y="131.31" width="65.66" height="65.66" fill="#0d4a8c"/><g transform="translate(328.29,131.31) scale(3.283) rotate(0)"><path d="M10 0L20 10L10 20L0 10L10 0Z" fill="#fbe3bc"/></g><rect x="393.94" y="131.31" width="65.66" height="65.66" fill="#fed262"/><path d="M 393.94 196.97 A 65.66 65.66 0 0 1  459.6 131.31 L 459.6 196.97L393.94 196.97" fill="#0d4a8c"/><rect x="459.6" y="131.31" width="65.66" height="65.66" fill="#fed262"/><rect x="459.6" y="131.31" width="65.66" height="65.66" fill="#000000"/><rect x="525.2571428571429" y="131.31428571428572" width="65.65714285714286" height="65.65714285714286" fill="#fffdfa"/><rect x="525.26" y="131.31" width="32.83" height="32.83" fill="#f90112"/><rect x="525.26" y="131.31" width="32.83" height="32.83" fill="#fed262"/><rect x="558.09" y="131.31" width="32.83" height="32.83" fill="#0d4a8c"/><path d="M 558.09 131.31 A 32.83 32.83 0 0 1 590.9200000000001 164.14 L 558.09 164.14L558.09 131.31" fill="#fbe3bc"/><rect x="525.26" y="164.14" width="32.83" height="32.83" fill="#0d4a8c"/><circle cx="541.675" cy="180.55499999999998" r="16.415" fill="#000000"/><rect x="558.09" y="164.14" width="32.83" height="32.83" fill="#000000"/><path d="M 558.09 196.96999999999997 A 32.83 32.83 0 0 0 590.9200000000001 164.14 L 558.09 164.14L558.09 196.96999999999997" fill="#000000"/><rect x="590.9142857142857" y="131.31428571428572" width="65.65714285714286" height="65.65714285714286" fill="#fffdfa"/><rect x="590.91" y="131.31" width="32.83" height="32.83" fill="#f90112"/><path d="M 590.91 164.14 A 32.83 32.83 0 0 0 623.74 131.31 L 590.91 131.31L590.91 164.14" fill="#fbe3bc"/><rect x="623.74" y="131.31" width="32.83" height="32.83" fill="#000000"/><g transform="translate(623.74,131.31) scale(1.6415) rotate(0)"><path fill-rule="evenodd" clip-rule="evenodd" d="M10 20C15.5228 20 20 15.5228 20 10C20 4.47715 15.5228 0 10 0C4.47715 0 0 4.47715 0 10C0 15.5228 4.47715 20 10 20ZM10 17C13.866 17 17 13.866 17 10C17 6.13401 13.866 3 10 3C6.13401 3 3 6.13401 3 10C3 13.866 6.13401 17 10 17Z" fill="#f90112"/></g><rect x="590.91" y="164.14" width="32.83" height="32.83" fill="#000000"/><polygon points="590.91,164.14 623.74,196.96999999999997 590.91,196.96999999999997" fill="#f90112"/><rect x="623.74" y="164.14" width="32.83" height="32.83" fill="#000000"/><g transform="translate(623.74,164.14) scale(1.6415) rotate(0)"><path fill-rule="evenodd" clip-rule="evenodd" d="M10 20C15.5228 20 20 15.5228 20 10C20 4.47715 15.5228 0 10 0C4.47715 0 0 4.47715 0 10C0 15.5228 4.47715 20 10 20ZM10 17C13.866 17 17 13.866 17 10C17 6.13401 13.866 3 10 3C6.13401 3 3 6.13401 3 10C3 13.866 6.13401 17 10 17Z" fill="#f90112"/></g><rect x="656.57" y="131.31" width="65.66" height="65.66" fill="#f90112"/><g transform="translate(656.57,131.31) scale(3.283) rotate(0)"><path d="M10 0L20 10L10 20L0 10L10 0Z" fill="#fbe3bc"/></g><rect x="722.23" y="131.31" width="65.66" height="65.66" fill="#000000"/><polygon points="722.23,131.31 787.89,196.97 722.23,196.97" fill="#fbe3bc"/><rect x="0" y="196.97" width="65.66" height="65.66" fill="#fed262"/><rect x="0" y="196.97" width="65.66" height="65.66" fill="#fbe3bc"/><rect x="65.65714285714286" y="196.9714285714286" width="65.65714285714286" height="65.65714285714286" fill="#fffdfa"/><rect x="65.66" y="196.97" width="32.83" height="32.83" fill="#fed262"/><circle cx="82.07499999999999" cy="213.385" r="16.415" fill="#f90112"/><rect x="98.49" y="196.97" width="32.83" height="32.83" fill="#f90112"/><path d="M 98.49 229.8 A 32.83 32.83 0 0 0 131.32 196.97 L 98.49 196.97L98.49 229.8" fill="#000000"/><rect x="65.66" y="229.8" width="32.83" height="32.83" fill="#000000"/><rect x="65.66" y="229.8" width="32.83" height="32.83" fill="#000000"/><rect x="98.49" y="229.8" width="32.83" height="32.83" fill="#fbe3bc"/><g transform="translate(98.49,229.8) scale(1.6415) rotate(0)"><rect width="20" height="10" fill="#fed262"/></g><rect x="131.31" y="196.97" width="65.66" height="65.66" fill="#f90112"/><polygon points="131.31,196.97 196.97,262.63 131.31,262.63" fill="#fbe3bc"/><rect x="196.97" y="196.97" width="65.66" height="65.66" fill="#000000"/><path d="M 196.97 196.97 A 65.66 65.66 0 0 0 262.63 262.63 L 262.63 196.97L196.97 196.97" fill="#0d4a8c"/><rect x="262.62857142857143" y="196.9714285714286" width="65.65714285714286" height="65.65714285714286" fill="#fffdfa"/><rect x="262.63" y="196.97" width="32.83" height="32.83" fill="#fbe3bc"/><path d="M 262.63 196.97 A 32.83 32.83 0 0 0 295.46 229.8 L 295.46 196.97L262.63 196.97" fill="#fbe3bc"/><rect x="295.46" y="196.97" width="32.83" height="32.83" fill="#0d4a8c"/><g transform="translate(295.46,196.97) scale(1.6415) rotate(0)"><rect width="20" height="10" fill="#fed262"/></g><rect x="262.63" y="229.8" width="32.83" height="32.83" fill="#000000"/><g transform="translate(262.63,229.8) scale(1.6415) rotate(0)"><path d="M10 0L20 10L10 20L0 10L10 0Z" fill="#0d4a8c"/></g><rect x="295.46" y="229.8" width="32.83" height="32.83" fill="#fbe3bc"/><g transform="translate(295.46,229.8) scale(1.6415) rotate(0)"><path fill-rule="evenodd" clip-rule="evenodd" d="M10 20C15.5228 20 20 15.5228 20 10C20 4.47715 15.5228 0 10 0C4.47715 0 0 4.47715 0 10C0 15.5228 4.47715 20 10 20ZM10 17C13.866 17 17 13.866 17 10C17 6.13401 13.866 3 10 3C6.13401 3 3 6.13401 3 10C3 13.866 6.13401 17 10 17Z" fill="#f90112"/></g><rect x="328.2857142857143" y="196.9714285714286" width="65.65714285714286" height="65.65714285714286" fill="#fffdfa"/><rect x="328.29" y="196.97" width="32.83" height="32.83" fill="#fed262"/><g transform="translate(328.29,196.97) scale(1.6415) rotate(0)"><path d="M10 0L20 10L10 20L0 10L10 0Z" fill="#000000"/></g><rect x="361.11" y="196.97" width="32.83" height="32.83" fill="#f90112"/><polygon points="361.11,196.97 393.94,229.8 361.11,229.8" fill="#fbe3bc"/><rect x="328.29" y="229.8" width="32.83" height="32.83" fill="#fed262"/><g transform="translate(328.29,229.8) scale(1.6415) rotate(0)"><path d="M10 0L20 10L10 20L0 10L10 0Z" fill="#000000"/></g><rect x="361.11" y="229.8" width="32.83" height="32.83" fill="#fed262"/><g transform="translate(361.11,229.8) scale(1.6415) rotate(0)"><path fill-rule="evenodd" clip-rule="evenodd" d="M10 20C15.5228 20 20 15.5228 20 10C20 4.47715 15.5228 0 10 0C4.47715 0 0 4.47715 0 10C0 15.5228 4.47715 20 10 20ZM10 17C13.866 17 17 13.866 17 10C17 6.13401 13.866 3 10 3C6.13401 3 3 6.13401 3 10C3 13.866 6.13401 17 10 17Z" fill="#0d4a8c"/></g><rect x="393.94" y="196.97" width="65.66" height="65.66" fill="#000000"/><g transform="translate(393.94,196.97) scale(3.283) rotate(0)"><rect width="20" height="10" fill="#000000"/></g><rect x="459.6" y="196.97" width="65.66" height="65.66" fill="#0d4a8c"/><circle cx="492.43" cy="229.8" r="32.83" fill="#fbe3bc"/><rect x="525.26" y="196.97" width="65.66" height="65.66" fill="#f90112"/><rect x="525.26" y="196.97" width="65.66" height="65.66" fill="#f90112"/><rect x="590.91" y="196.97" width="65.66" height="65.66" fill="#fed262"/><path d="M 590.91 262.63 A 65.66 65.66 0 0 1  656.5699999999999 196.97 L 590.91 262.63 A 65.66 65.66 0 0 0 656.5699999999999 196.97" fill="#fed262"/><rect x="656.57" y="196.97" width="65.66" height="65.66" fill="#0d4a8c"/><g transform="translate(656.57,196.97) scale(3.283) rotate(0)"><path d="M10 0L20 10L10 20L0 10L10 0Z" fill="#f90112"/></g><rect x="722.23" y="196.97" width="65.66" height="65.66" fill="#f90112"/><circle cx="755.0600000000001" cy="229.8" r="32.83" fill="#0d4a8c"/><rect x="0" y="262.62857142857143" width="65.65714285714286" height="65.65714285714286" fill="#fffdfa"/><rect x="0" y="262.63" width="32.83" height="32.83" fill="#000000"/><g transform="translate(0,262.63) scale(1.6415) rotate(0)"><path d="M10 0L20 10L10 20L0 10L10 0Z" fill="#fbe3bc"/></g><rect x="32.83" y="262.63" width="32.83" height="32.83" fill="#0d4a8c"/><g transform="translate(32.83,262.63) scale(1.6415) rotate(0)"><path d="M10 0L20 10L10 20L0 10L10 0Z" fill="#fed262"/></g><rect x="0" y="295.46" width="32.83" height="32.83" fill="#f90112"/><g transform="translate(0,295.46) scale(1.6415) rotate(0)"><rect width="20" height="10" fill="#fed262"/></g><rect x="32.83" y="295.46" width="32.83" height="32.83" fill="#fed262"/><g transform="translate(32.83,295.46) scale(1.6415) rotate(0)"><rect width="20" height="10" fill="#0d4a8c"/></g><rect x="65.66" y="262.63" width="65.66" height="65.66" fill="#fbe3bc"/><g transform="translate(65.66,262.63) scale(3.283) rotate(0)"><rect width="20" height="10" fill="#f90112"/></g><rect x="131.31" y="262.63" width="65.66" height="65.66" fill="#f90112"/><circle cx="164.14" cy="295.46" r="32.83" fill="#fed262"/><rect x="196.97" y="262.63" width="65.66" height="65.66" fill="#f90112"/><g transform="translate(196.97,262.63) scale(3.283) rotate(0)"><path fill-rule="evenodd" clip-rule="evenodd" d="M10 20C15.5228 20 20 15.5228 20 10C20 4.47715 15.5228 0 10 0C4.47715 0 0 4.47715 0 10C0 15.5228 4.47715 20 10 20ZM10 17C13.866 17 17 13.866 17 10C17 6.13401 13.866 3 10 3C6.13401 3 3 6.13401 3 10C3 13.866 6.13401 17 10 17Z" fill="#fbe3bc"/></g><rect x="262.63" y="262.63" width="65.66" height="65.66" fill="#000000"/><circle cx="295.46" cy="295.46" r="32.83" fill="#0d4a8c"/><rect x="328.29" y="262.63" width="65.66" height="65.66" fill="#f90112"/><rect x="328.29" y="262.63" width="65.66" height="65.66" fill="#0d4a8c"/><rect x="393.94" y="262.63" width="65.66" height="65.66" fill="#fed262"/><path d="M 393.94 328.28999999999996 A 65.66 65.66 0 0 1  459.6 262.63 L 393.94 328.28999999999996 A 65.66 65.66 0 0 0 459.6 262.63" fill="#f90112"/><rect x="459.6" y="262.62857142857143" width="65.65714285714286" height="65.65714285714286" fill="#fffdfa"/><rect x="459.6" y="262.63" width="32.83" height="32.83" fill="#0d4a8c"/><polygon points="459.6,262.63 492.43,262.63 459.6,295.46" fill="#fed262"/><rect x="492.43" y="262.63" width="32.83" height="32.83" fill="#fed262"/><path d="M 492.43 262.63 A 32.83 32.83 0 0 1  525.26 295.46 L 492.43 262.63 A 32.83 32.83 0 0 0 525.26 295.46" fill="#fed262"/><rect x="459.6" y="295.46" width="32.83" height="32.83" fill="#f90112"/><g transform="translate(459.6,295.46) scale(1.6415) rotate(0)"><rect width="20" height="10" fill="#fbe3bc"/></g><rect x="492.43" y="295.46" width="32.83" height="32.83" fill="#f90112"/><g transform="translate(492.43,295.46) scale(1.6415) rotate(0)"><rect width="20" height="10" fill="#f90112"/></g><rect x="525.26" y="262.63" width="65.66" height="65.66" fill="#fed262"/><path d="M 525.26 262.63 A 65.66 65.66 0 0 1  590.92 328.28999999999996 L 525.26 262.63 A 65.66 65.66 0 0 0 590.92 328.28999999999996" fill="#fed262"/><rect x="590.91" y="262.63" width="65.66" height="65.66" fill="#000000"/><polygon points="656.5699999999999,262.63 656.5699999999999,328.28999999999996 590.91,328.28999999999996" fill="#0d4a8c"/><rect x="656.5714285714286" y="262.62857142857143" width="65.65714285714286" height="65.65714285714286" fill="#fffdfa"/><rect x="656.57" y="262.63" width="32.83" height="32.83" fill="#fbe3bc"/><path d="M 656.57 295.46 A 32.83 32.83 0 0 1  689.4000000000001 262.63 L 689.4000000000001 295.46L656.57 295.46" fill="#fed262"/><rect x="689.4" y="262.63" width="32.83" height="32.83" fill="#fbe3bc"/><polygon points="689.4,262.63 722.23,295.46 689.4,295.46" fill="#fbe3bc"/><rect x="656.57" y="295.46" width="32.83" height="32.83" fill="#0d4a8c"/><circle cx="672.985" cy="311.875" r="16.415" fill="#fed262"/><rect x="689.4" y="295.46" width="32.83" height="32.83" fill="#fbe3bc"/><polygon points="689.4,295.46 722.23,295.46 722.23,328.28999999999996" fill="#0d4a8c"/><rect x="722.23" y="262.63" width="65.66" height="65.66" fill="#fbe3bc"/><path d="M 722.23 262.63 A 65.66 65.66 0 0 0 787.89 328.28999999999996 L 787.89 262.63L722.23 262.63" fill="#000000"/><rect x="0" y="328.2857142857143" width="65.65714285714286" height="65.65714285714286" fill="#fffdfa"/><rect x="0" y="328.29" width="32.83" height="32.83" fill="#fed262"/><path d="M 0 361.12 A 32.83 32.83 0 0 1  32.83 328.29 L 0 361.12 A 32.83 32.83 0 0 0 32.83 328.29" fill="#f90112"/><rect x="32.83" y="328.29" width="32.83" height="32.83" fill="#000000"/><g transform="translate(32.83,328.29) scale(1.6415) rotate(0)"><rect width="20" height="10" fill="#000000"/></g><rect x="0" y="361.11" width="32.83" height="32.83" fill="#fbe3bc"/><rect x="0" y="361.11" width="32.83" height="32.83" fill="#f90112"/><rect x="32.83" y="361.11" width="32.83" height="32.83" fill="#0d4a8c"/><circle cx="49.245" cy="377.52500000000003" r="16.415" fill="#000000"/><rect x="65.66" y="328.29" width="65.66" height="65.66" fill="#0d4a8c"/><g transform="translate(65.66,328.29) scale(3.283) rotate(0)"><rect width="20" height="10" fill="#fbe3bc"/></g><rect x="131.31" y="328.29" width="65.66" height="65.66" fill="#fed262"/><circle cx="164.14" cy="361.12" r="32.83" fill="#fbe3bc"/><rect x="196.97" y="328.29" width="65.66" height="65.66" fill="#fbe3bc"/><circle cx="229.8" cy="361.12" r="32.83" fill="#fbe3bc"/><rect x="262.63" y="328.29" width="65.66" height="65.66" fill="#000000"/><polygon points="262.63,328.29 328.28999999999996,328.29 328.28999999999996,393.95000000000005" fill="#0d4a8c"/><rect x="328.29" y="328.29" width="65.66" height="65.66" fill="#fbe3bc"/><rect x="328.29" y="328.29" width="65.66" height="65.66" fill="#000000"/><rect x="393.9428571428572" y="328.2857142857143" width="65.65714285714286" height="65.65714285714286" fill="#fffdfa"/><rect x="393.94" y="328.29" width="32.83" height="32.83" fill="#fed262"/><g transform="translate(393.94,328.29) scale(1.6415) rotate(0)"><rect width="20" height="10" fill="#f90112"/></g><rect x="426.77" y="328.29" width="32.83" height="32.83" fill="#fbe3bc"/><g transform="translate(426.77,328.29) scale(1.6415) rotate(0)"><path d="M10 0L20 10L10 20L0 10L10 0Z" fill="#fed262"/></g><rect x="393.94" y="361.11" width="32.83" height="32.83" fill="#f90112"/><g transform="translate(393.94,361.11) scale(1.6415) rotate(0)"><rect width="20" height="10" fill="#f90112"/></g><rect x="426.77" y="361.11" width="32.83" height="32.83" fill="#fbe3bc"/><g transform="translate(426.77,361.11) scale(1.6415) rotate(0)"><path fill-rule="evenodd" clip-rule="evenodd" d="M10 20C15.5228 20 20 15.5228 20 10C20 4.47715 15.5228 0 10 0C4.47715 0 0 4.47715 0 10C0 15.5228 4.47715 20 10 20ZM10 17C13.866 17 17 13.866 17 10C17 6.13401 13.866 3 10 3C6.13401 3 3 6.13401 3 10C3 13.866 6.13401 17 10 17Z" fill="#0d4a8c"/></g><rect x="459.6" y="328.29" width="65.66" height="65.66" fill="#fbe3bc"/><polygon points="459.6,328.29 525.26,328.29 525.26,393.95000000000005" fill="#fed262"/><rect x="525.26" y="328.29" width="65.66" height="65.66" fill="#fbe3bc"/><polygon points="525.26,328.29 590.92,328.29 590.92,393.95000000000005" fill="#fed262"/><rect x="590.91" y="328.29" width="65.66" height="65.66" fill="#fbe3bc"/><path d="M 590.91 328.29 A 65.66 65.66 0 0 1 656.5699999999999 393.95000000000005 L 590.91 393.95000000000005L590.91 328.29" fill="#f90112"/><rect x="656.57" y="328.29" width="65.66" height="65.66" fill="#f90112"/><path d="M 656.57 328.29 A 65.66 65.66 0 0 1 722.23 393.95000000000005 L 656.57 393.95000000000005L656.57 328.29" fill="#0d4a8c"/><rect x="722.23" y="328.29" width="65.66" height="65.66" fill="#000000"/><rect x="722.23" y="328.29" width="65.66" height="65.66" fill="#000000"/><rect x="0" y="393.94" width="65.66" height="65.66" fill="#fed262"/><g transform="translate(0,393.94) scale(3.283) rotate(0)"><path fill-rule="evenodd" clip-rule="evenodd" d="M10 20C15.5228 20 20 15.5228 20 10C20 4.47715 15.5228 0 10 0C4.47715 0 0 4.47715 0 10C0 15.5228 4.47715 20 10 20ZM10 17C13.866 17 17 13.866 17 10C17 6.13401 13.866 3 10 3C6.13401 3 3 6.13401 3 10C3 13.866 6.13401 17 10 17Z" fill="#0d4a8c"/></g><rect x="65.66" y="393.94" width="65.66" height="65.66" fill="#f90112"/><path d="M 65.66 459.6 A 65.66 65.66 0 0 1  131.32 393.94 L 131.32 459.6L65.66 459.6" fill="#f90112"/><rect x="131.31" y="393.94" width="65.66" height="65.66" fill="#f90112"/><circle cx="164.14" cy="426.77" r="32.83" fill="#fed262"/><rect x="196.97" y="393.94" width="65.66" height="65.66" fill="#f90112"/><polygon points="262.63,393.94 262.63,459.6 196.97,459.6" fill="#fbe3bc"/><rect x="262.63" y="393.94" width="65.66" height="65.66" fill="#fed262"/><rect x="262.63" y="393.94" width="65.66" height="65.66" fill="#fbe3bc"/><rect x="328.29" y="393.94" width="65.66" height="65.66" fill="#f90112"/><circle cx="361.12" cy="426.77" r="32.83" fill="#fed262"/><rect x="393.94" y="393.94" width="65.66" height="65.66" fill="#0d4a8c"/><rect x="393.94" y="393.94" width="65.66" height="65.66" fill="#0d4a8c"/><rect x="459.6" y="393.9428571428572" width="65.65714285714286" height="65.65714285714286" fill="#fffdfa"/><rect x="459.6" y="393.94" width="32.83" height="32.83" fill="#f90112"/><polygon points="459.6,393.94 492.43,393.94 492.43,426.77" fill="#0d4a8c"/><rect x="492.43" y="393.94" width="32.83" height="32.83" fill="#000000"/><path d="M 492.43 393.94 A 32.83 32.83 0 0 1  525.26 426.77 L 492.43 393.94 A 32.83 32.83 0 0 0 525.26 426.77" fill="#000000"/><rect x="459.6" y="426.77" width="32.83" height="32.83" fill="#fbe3bc"/><path d="M 459.6 426.77 A 32.83 32.83 0 0 1 492.43 459.59999999999997 L 459.6 459.59999999999997L459.6 426.77" fill="#fed262"/><rect x="492.43" y="426.77" width="32.83" height="32.83" fill="#fed262"/><polygon points="492.43,426.77 525.26,459.59999999999997 492.43,459.59999999999997" fill="#000000"/><rect x="525.26" y="393.94" width="65.66" height="65.66" fill="#000000"/><g transform="translate(525.26,393.94) scale(3.283) rotate(0)"><path d="M10 0L20 10L10 20L0 10L10 0Z" fill="#0d4a8c"/></g><rect x="590.91" y="393.94" width="65.66" height="65.66" fill="#fed262"/><g transform="translate(590.91,393.94) scale(3.283) rotate(0)"><rect width="20" height="10" fill="#f90112"/></g><rect x="656.57" y="393.94" width="65.66" height="65.66" fill="#f90112"/><g transform="translate(656.57,393.94) scale(3.283) rotate(0)"><rect width="20" height="10" fill="#fed262"/></g><rect x="722.2285714285714" y="393.9428571428572" width="65.65714285714286" height="65.65714285714286" fill="#fffdfa"/><rect x="722.23" y="393.94" width="32.83" height="32.83" fill="#f90112"/><rect x="722.23" y="393.94" width="32.83" height="32.83" fill="#fbe3bc"/><rect x="755.06" y="393.94" width="32.83" height="32.83" fill="#0d4a8c"/><polygon points="787.89,393.94 787.89,426.77 755.06,426.77" fill="#fed262"/><rect x="722.23" y="426.77" width="32.83" height="32.83" fill="#fbe3bc"/><g transform="translate(722.23,426.77) scale(1.6415) rotate(0)"><path fill-rule="evenodd" clip-rule="evenodd" d="M10 20C15.5228 20 20 15.5228 20 10C20 4.47715 15.5228 0 10 0C4.47715 0 0 4.47715 0 10C0 15.5228 4.47715 20 10 20ZM10 17C13.866 17 17 13.866 17 10C17 6.13401 13.866 3 10 3C6.13401 3 3 6.13401 3 10C3 13.866 6.13401 17 10 17Z" fill="#0d4a8c"/></g><rect x="755.06" y="426.77" width="32.83" height="32.83" fill="#0d4a8c"/><path d="M 755.06 459.59999999999997 A 32.83 32.83 0 0 1  787.89 426.77 L 755.06 459.59999999999997 A 32.83 32.83 0 0 0 787.89 426.77" fill="#f90112"/></g></svg>