<svg id="visual" viewBox="0 0 1920 1080" width="1920" height="1080" xmlns="http://www.w3.org/2000/svg" xmlns:xlink="http://www.w3.org/1999/xlink" version="1.1"><rect x="0" y="0" width="1920" height="1080" fill="#09223b"></rect><defs><linearGradient id="grad1_0" x1="43.8%" y1="0%" x2="100%" y2="100%"><stop offset="14.444444444444446%" stop-color="#47c375" stop-opacity="1"></stop><stop offset="85.55555555555554%" stop-color="#47c375" stop-opacity="1"></stop></linearGradient></defs><defs><linearGradient id="grad1_1" x1="43.8%" y1="0%" x2="100%" y2="100%"><stop offset="14.444444444444446%" stop-color="#47c375" stop-opacity="1"></stop><stop offset="85.55555555555554%" stop-color="#009c87" stop-opacity="1"></stop></linearGradient></defs><defs><linearGradient id="grad1_2" x1="43.8%" y1="0%" x2="100%" y2="100%"><stop offset="14.444444444444446%" stop-color="#007283" stop-opacity="1"></stop><stop offset="85.55555555555554%" stop-color="#009c87" stop-opacity="1"></stop></linearGradient></defs><defs><linearGradient id="grad1_3" x1="43.8%" y1="0%" x2="100%" y2="100%"><stop offset="14.444444444444446%" stop-color="#007283" stop-opacity="1"></stop><stop offset="85.55555555555554%" stop-color="#004867" stop-opacity="1"></stop></linearGradient></defs><defs><linearGradient id="grad1_4" x1="43.8%" y1="0%" x2="100%" y2="100%"><stop offset="14.444444444444446%" stop-color="#09223b" stop-opacity="1"></stop><stop offset="85.55555555555554%" stop-color="#004867" stop-opacity="1"></stop></linearGradient></defs><defs><linearGradient id="grad2_0" x1="0%" y1="0%" x2="56.3%" y2="100%"><stop offset="14.444444444444446%" stop-color="#47c375" stop-opacity="1"></stop><stop offset="85.55555555555554%" stop-color="#47c375" stop-opacity="1"></stop></linearGradient></defs><defs><linearGradient id="grad2_1" x1="0%" y1="0%" x2="56.3%" y2="100%"><stop offset="14.444444444444446%" stop-color="#009c87" stop-opacity="1"></stop><stop offset="85.55555555555554%" stop-color="#47c375" stop-opacity="1"></stop></linearGradient></defs><defs><linearGradient id="grad2_2" x1="0%" y1="0%" x2="56.3%" y2="100%"><stop offset="14.444444444444446%" stop-color="#009c87" stop-opacity="1"></stop><stop offset="85.55555555555554%" stop-color="#007283" stop-opacity="1"></stop></linearGradient></defs><defs><linearGradient id="grad2_3" x1="0%" y1="0%" x2="56.3%" y2="100%"><stop offset="14.444444444444446%" stop-color="#004867" stop-opacity="1"></stop><stop offset="85.55555555555554%" stop-color="#007283" stop-opacity="1"></stop></linearGradient></defs><defs><linearGradient id="grad2_4" x1="0%" y1="0%" x2="56.3%" y2="100%"><stop offset="14.444444444444446%" stop-color="#004867" stop-opacity="1"></stop><stop offset="85.55555555555554%" stop-color="#09223b" stop-opacity="1"></stop></linearGradient></defs><g transform="translate(1920, 0)"><path d="M0 972C-105.8 907 -211.5 842.1 -333.3 804.7C-455.1 767.3 -592.9 757.6 -687.3 687.3C-781.7 617 -832.8 486.3 -873.1 361.6C-913.3 237 -942.6 118.5 -972 0L0 0Z" fill="#003452"></path><path d="M0 777.6C-84.6 725.6 -169.2 673.7 -266.7 643.8C-364.1 613.9 -474.3 606.1 -549.8 549.8C-625.4 493.6 -666.3 389 -698.5 289.3C-730.6 189.6 -754.1 94.8 -777.6 0L0 0Z" fill="#005c78"></path><path d="M0 583.2C-63.5 544.2 -126.9 505.2 -200 482.8C-273.1 460.4 -355.7 454.5 -412.4 412.4C-469 370.2 -499.7 291.8 -523.8 217C-548 142.2 -565.6 71.1 -583.2 0L0 0Z" fill="#008788"></path><path d="M0 388.8C-42.3 362.8 -84.6 336.8 -133.3 321.9C-182 306.9 -237.1 303 -274.9 274.9C-312.7 246.8 -333.1 194.5 -349.2 144.7C-365.3 94.8 -377.1 47.4 -388.8 0L0 0Z" fill="#00b080"></path><path d="M0 194.4C-21.2 181.4 -42.3 168.4 -66.7 160.9C-91 153.5 -118.6 151.5 -137.5 137.5C-156.3 123.4 -166.6 97.3 -174.6 72.3C-182.7 47.4 -188.5 23.7 -194.4 0L0 0Z" fill="#47c375"></path></g><g transform="translate(0, 1080)"><path d="M0 -972C116.1 -935.9 232.2 -899.8 356.3 -860.1C480.4 -820.4 612.5 -777.2 687.3 -687.3C762.1 -597.4 779.7 -461 817.6 -338.7C855.5 -216.4 913.8 -108.2 972 0L0 0Z" fill="#003452"></path><path d="M0 -777.6C92.9 -748.7 185.7 -719.9 285 -688.1C384.3 -656.4 490 -621.7 549.8 -549.8C609.7 -478 623.8 -368.8 654.1 -270.9C684.4 -173.1 731 -86.5 777.6 0L0 0Z" fill="#005c78"></path><path d="M0 -583.2C69.7 -561.5 139.3 -539.9 213.8 -516.1C288.2 -492.3 367.5 -466.3 412.4 -412.4C457.3 -358.5 467.8 -276.6 490.6 -203.2C513.3 -129.8 548.3 -64.9 583.2 0L0 0Z" fill="#008788"></path><path d="M0 -388.8C46.4 -374.4 92.9 -359.9 142.5 -344.1C192.1 -328.2 245 -310.9 274.9 -274.9C304.9 -239 311.9 -184.4 327.1 -135.5C342.2 -86.5 365.5 -43.3 388.8 0L0 0Z" fill="#00b080"></path><path d="M0 -194.4C23.2 -187.2 46.4 -180 71.3 -172C96.1 -164.1 122.5 -155.4 137.5 -137.5C152.4 -119.5 155.9 -92.2 163.5 -67.7C171.1 -43.3 182.8 -21.6 194.4 0L0 0Z" fill="#47c375"></path></g></svg>